<svg width="10" height="10" viewBox="0 0 10 10" fill="none" xmlns="http://www.w3.org/2000/svg">
<path d="M5 9.5002L4.275 8.8502C3.43333 8.09186 2.7375 7.4377 2.1875 6.8877C1.6375 6.3377 1.2 5.84395 0.875 5.40645C0.55 4.96895 0.322917 4.56686 0.19375 4.2002C0.0645833 3.83353 0 3.45853 0 3.0752C0 2.29186 0.2625 1.6377 0.7875 1.1127C1.3125 0.587695 1.96667 0.325195 2.75 0.325195C3.18333 0.325195 3.59583 0.416862 3.9875 0.600195C4.37917 0.783529 4.71667 1.04186 5 1.3752C5.28333 1.04186 5.62083 0.783529 6.0125 0.600195C6.40417 0.416862 6.81667 0.325195 7.25 0.325195C8.03333 0.325195 8.6875 0.587695 9.2125 1.1127C9.7375 1.6377 10 2.29186 10 3.0752C10 3.45853 9.93542 3.83353 9.80625 4.2002C9.67708 4.56686 9.45 4.96895 9.125 5.40645C8.8 5.84395 8.3625 6.3377 7.8125 6.8877C7.2625 7.4377 6.56667 8.09186 5.725 8.8502L5 9.5002ZM5 8.1502C5.8 7.43353 6.45833 6.81895 6.975 6.30645C7.49167 5.79395 7.9 5.34811 8.2 4.96895C8.5 4.58978 8.70833 4.25228 8.825 3.95645C8.94167 3.66061 9 3.36686 9 3.0752C9 2.5752 8.83333 2.15853 8.5 1.8252C8.16667 1.49186 7.75 1.3252 7.25 1.3252C6.85833 1.3252 6.49583 1.43561 6.1625 1.65645C5.82917 1.87728 5.6 2.15853 5.475 2.5002H4.525C4.4 2.15853 4.17083 1.87728 3.8375 1.65645C3.50417 1.43561 3.14167 1.3252 2.75 1.3252C2.25 1.3252 1.83333 1.49186 1.5 1.8252C1.16667 2.15853 1 2.5752 1 3.0752C1 3.36686 1.05833 3.66061 1.175 3.95645C1.29167 4.25228 1.5 4.58978 1.8 4.96895C2.1 5.34811 2.50833 5.79395 3.025 6.30645C3.54167 6.81895 4.2 7.43353 5 8.1502Z" fill="#F58634"/>
</svg>
