<svg width="11" height="11" viewBox="0 0 11 11" fill="none" xmlns="http://www.w3.org/2000/svg">
<path fill-rule="evenodd" clip-rule="evenodd" d="M3 6.25C3 6.947 2.52 7.529 1.875 7.697V10.375C1.875 10.4745 1.83549 10.5698 1.76517 10.6402C1.69484 10.7105 1.59946 10.75 1.5 10.75C1.40054 10.75 1.30516 10.7105 1.23483 10.6402C1.16451 10.5698 1.125 10.4745 1.125 10.375V7.697C0.80382 7.61425 0.519153 7.42732 0.315578 7.16547C0.112003 6.90363 0.00101686 6.58167 0 6.25C0 5.553 0.48 4.971 1.125 4.803V0.625C1.125 0.525544 1.16451 0.430161 1.23483 0.359835C1.30516 0.289509 1.40054 0.25 1.5 0.25C1.59946 0.25 1.69484 0.289509 1.76517 0.359835C1.83549 0.430161 1.875 0.525544 1.875 0.625V4.803C2.52 4.971 3 5.553 3 6.25ZM6.75 2.5C6.75 3.197 6.27 3.779 5.625 3.947V10.375C5.625 10.4745 5.58549 10.5698 5.51516 10.6402C5.44484 10.7105 5.34946 10.75 5.25 10.75C5.15054 10.75 5.05516 10.7105 4.98484 10.6402C4.91451 10.5698 4.875 10.4745 4.875 10.375V3.947C4.55382 3.86425 4.26915 3.67732 4.06558 3.41547C3.862 3.15363 3.75102 2.83167 3.75 2.5C3.75 1.803 4.23 1.221 4.875 1.053V0.625C4.875 0.525544 4.91451 0.430161 4.98484 0.359835C5.05516 0.289509 5.15054 0.25 5.25 0.25C5.34946 0.25 5.44484 0.289509 5.51516 0.359835C5.58549 0.430161 5.625 0.525544 5.625 0.625V1.053C6.27 1.221 6.75 1.803 6.75 2.5ZM10.5 7C10.5 7.697 10.02 8.279 9.375 8.447V10.375C9.375 10.4745 9.33549 10.5698 9.26517 10.6402C9.19484 10.7105 9.09946 10.75 9 10.75C8.90054 10.75 8.80516 10.7105 8.73483 10.6402C8.66451 10.5698 8.625 10.4745 8.625 10.375V8.447C8.30382 8.36425 8.01915 8.17732 7.81558 7.91547C7.612 7.65363 7.50102 7.33167 7.5 7C7.5 6.303 7.98 5.721 8.625 5.553V0.625C8.625 0.525544 8.66451 0.430161 8.73483 0.359835C8.80516 0.289509 8.90054 0.25 9 0.25C9.09946 0.25 9.19484 0.289509 9.26517 0.359835C9.33549 0.430161 9.375 0.525544 9.375 0.625V5.553C10.02 5.721 10.5 6.303 10.5 7Z" fill="#7C7C7C"/>
</svg>
