<svg width="10" height="10" viewBox="0 0 10 10" fill="none" xmlns="http://www.w3.org/2000/svg">
<path d="M5 8C5.175 8 5.32292 7.93958 5.44375 7.81875C5.56458 7.69792 5.625 7.55 5.625 7.375C5.625 7.2 5.56458 7.05208 5.44375 6.93125C5.32292 6.81042 5.175 6.75 5 6.75C4.825 6.75 4.67708 6.81042 4.55625 6.93125C4.43542 7.05208 4.375 7.2 4.375 7.375C4.375 7.55 4.43542 7.69792 4.55625 7.81875C4.67708 7.93958 4.825 8 5 8ZM4.55 6.075H5.475C5.475 5.775 5.50833 5.55417 5.575 5.4125C5.64167 5.27083 5.78333 5.09167 6 4.875C6.29167 4.58333 6.49792 4.33958 6.61875 4.14375C6.73958 3.94792 6.8 3.725 6.8 3.475C6.8 3.03333 6.65 2.67708 6.35 2.40625C6.05 2.13542 5.64583 2 5.1375 2C4.67917 2 4.28958 2.1125 3.96875 2.3375C3.64792 2.5625 3.425 2.875 3.3 3.275L4.125 3.6C4.18333 3.375 4.3 3.19375 4.475 3.05625C4.65 2.91875 4.85417 2.85 5.0875 2.85C5.3125 2.85 5.5 2.91042 5.65 3.03125C5.8 3.15208 5.875 3.3125 5.875 3.5125C5.875 3.65417 5.82917 3.80417 5.7375 3.9625C5.64583 4.12083 5.49167 4.29583 5.275 4.4875C5 4.72917 4.81042 4.96042 4.70625 5.18125C4.60208 5.40208 4.55 5.7 4.55 6.075ZM1.5 9.5C1.225 9.5 0.989583 9.40208 0.79375 9.20625C0.597917 9.01042 0.5 8.775 0.5 8.5V1.5C0.5 1.225 0.597917 0.989583 0.79375 0.79375C0.989583 0.597917 1.225 0.5 1.5 0.5H8.5C8.775 0.5 9.01042 0.597917 9.20625 0.79375C9.40208 0.989583 9.5 1.225 9.5 1.5V8.5C9.5 8.775 9.40208 9.01042 9.20625 9.20625C9.01042 9.40208 8.775 9.5 8.5 9.5H1.5ZM1.5 8.5H8.5V1.5H1.5V8.5Z" fill="#F58634"/>
</svg>
