<svg width="69" height="69" viewBox="0 0 69 69" fill="none" xmlns="http://www.w3.org/2000/svg">
<g filter="url(#filter0_d_1037_1269)">
<circle cx="34.5" cy="34.5" r="32.5" fill="#545454"/>
<circle cx="34.5" cy="34.5" r="32" stroke="#F58634"/>
</g>
<mask id="mask0_1037_1269" style="mask-type:alpha" maskUnits="userSpaceOnUse" x="17" y="17" width="36" height="36">
<rect x="17" y="17" width="36" height="36" fill="#D9D9D9"/>
</mask>
<g mask="url(#mask0_1037_1269)">
</g>
<path d="M34.425 38L41.85 30.575L39.7125 28.475L34.425 33.7625L32.2875 31.625L30.15 33.7625L34.425 38ZM25.5 48.5V24.5C25.5 23.675 25.7938 22.9688 26.3813 22.3813C26.9688 21.7938 27.675 21.5 28.5 21.5H43.5C44.325 21.5 45.0312 21.7938 45.6188 22.3813C46.2063 22.9688 46.5 23.675 46.5 24.5V48.5L36 44L25.5 48.5ZM28.5 43.925L36 40.7L43.5 43.925V24.5H28.5V43.925Z" fill="#F58634"/>
<defs>
<filter id="filter0_d_1037_1269" x="0" y="0" width="69" height="69" filterUnits="userSpaceOnUse" color-interpolation-filters="sRGB">
<feFlood flood-opacity="0" result="BackgroundImageFix"/>
<feColorMatrix in="SourceAlpha" type="matrix" values="0 0 0 0 0 0 0 0 0 0 0 0 0 0 0 0 0 0 127 0" result="hardAlpha"/>
<feOffset/>
<feGaussianBlur stdDeviation="1"/>
<feComposite in2="hardAlpha" operator="out"/>
<feColorMatrix type="matrix" values="0 0 0 0 0 0 0 0 0 0 0 0 0 0 0 0 0 0 0.25 0"/>
<feBlend mode="normal" in2="BackgroundImageFix" result="effect1_dropShadow_1037_1269"/>
<feBlend mode="normal" in="SourceGraphic" in2="effect1_dropShadow_1037_1269" result="shape"/>
</filter>
</defs>
</svg>
