<svg width="10" height="8" viewBox="0 0 10 8" fill="none" xmlns="http://www.w3.org/2000/svg">
<path d="M6 4.5H8.5V3.5H6V4.5ZM6 3H8.5V2H6V3ZM1.5 6H5.5V5.725C5.5 5.35 5.31667 5.05208 4.95 4.83125C4.58333 4.61042 4.1 4.5 3.5 4.5C2.9 4.5 2.41667 4.61042 2.05 4.83125C1.68333 5.05208 1.5 5.35 1.5 5.725V6ZM3.5 4C3.775 4 4.01042 3.90208 4.20625 3.70625C4.40208 3.51042 4.5 3.275 4.5 3C4.5 2.725 4.40208 2.48958 4.20625 2.29375C4.01042 2.09792 3.775 2 3.5 2C3.225 2 2.98958 2.09792 2.79375 2.29375C2.59792 2.48958 2.5 2.725 2.5 3C2.5 3.275 2.59792 3.51042 2.79375 3.70625C2.98958 3.90208 3.225 4 3.5 4ZM1 8C0.725 8 0.489583 7.90208 0.29375 7.70625C0.0979167 7.51042 0 7.275 0 7V1C0 0.725 0.0979167 0.489583 0.29375 0.29375C0.489583 0.0979167 0.725 0 1 0H9C9.275 0 9.51042 0.0979167 9.70625 0.29375C9.90208 0.489583 10 0.725 10 1V7C10 7.275 9.90208 7.51042 9.70625 7.70625C9.51042 7.90208 9.275 8 9 8H1ZM1 7H9V1H1V7Z" fill="#F58634"/>
</svg>
