<svg width="18" height="18" viewBox="0 0 18 18" fill="none" xmlns="http://www.w3.org/2000/svg">
<path d="M0.69043 8.86032C0.69043 4.31021 4.41324 0.587402 8.96335 0.587402C13.5135 0.587402 17.2363 4.31021 17.2363 8.86032C17.2363 13.4104 13.5135 17.1332 8.96335 17.1332C4.41324 17.1332 0.69043 13.4104 0.69043 8.86032ZM9.11846 4.72386C7.98094 4.72386 7.82582 4.72386 7.36047 4.72386C6.89512 4.77557 6.58488 4.82727 6.32635 4.93068C6.06783 5.0341 5.8093 5.18921 5.55077 5.44774C5.29224 5.70627 5.13712 5.91309 5.03371 6.22333C4.9303 6.48186 4.82689 6.79209 4.82689 7.25744C4.82689 7.72279 4.82689 7.8262 4.82689 9.01544C4.82689 10.2047 4.82689 10.3598 4.87859 10.8251C4.87859 11.2905 4.98201 11.6007 5.08542 11.8593C5.18883 12.1178 5.34395 12.3763 5.60247 12.6348C5.8093 12.8417 6.06783 12.9968 6.37806 13.1519C6.63659 13.2553 6.94682 13.3587 7.41217 13.3587C7.87753 13.3587 8.03264 13.4104 9.17017 13.4104C10.3594 13.4104 10.5145 13.4104 10.9799 13.3587C11.4452 13.307 11.7555 13.2553 12.014 13.1519C12.2725 13.0485 12.531 12.8934 12.7896 12.6348C13.0481 12.3763 13.2032 12.1695 13.3066 11.8593C13.41 11.6007 13.5135 11.2388 13.5135 10.8251C13.5652 10.3598 13.5652 10.2047 13.5652 9.01544C13.5652 7.8262 13.5652 7.72279 13.5135 7.25744C13.5135 6.79209 13.41 6.48186 13.3066 6.22333C13.2032 5.91309 13.0481 5.70627 12.7896 5.44774C12.5827 5.24092 12.3242 5.0858 12.014 4.93068C11.7555 4.82727 11.3935 4.77557 10.9799 4.72386C10.4628 4.72386 10.3077 4.72386 9.11846 4.72386ZM8.75652 5.49945C8.85993 5.49945 9.01505 5.49945 9.11846 5.49945C10.256 5.49945 10.4111 5.49945 10.8765 5.49945C11.2901 5.49945 11.4969 5.60286 11.652 5.65456C11.8589 5.75798 12.014 5.86139 12.1691 5.9648C12.3242 6.06821 12.4276 6.22333 12.4793 6.48186C12.531 6.63697 12.6345 6.8438 12.6345 7.25744C12.6862 7.72279 12.6862 7.87791 12.6862 9.01544C12.6862 10.153 12.6862 10.3081 12.6345 10.7734C12.6345 11.1871 12.531 11.4456 12.4793 11.6007C12.4276 11.8075 12.3242 11.911 12.1691 12.1178C12.014 12.2729 11.8589 12.3246 11.652 12.428C11.4969 12.4797 11.2901 12.5831 10.8765 12.5831C10.4111 12.5831 10.256 12.6348 9.11846 12.6348C7.98094 12.6348 7.82582 12.6348 7.36047 12.5831C6.94682 12.5831 6.74 12.4797 6.58488 12.428C6.37806 12.3246 6.22294 12.2729 6.06783 12.1178C5.91271 11.9627 5.8093 11.8075 5.75759 11.6007C5.70589 11.4456 5.65418 11.2388 5.60247 10.7734C5.60247 10.3081 5.60247 10.2047 5.60247 9.01544C5.60247 7.87791 5.60247 7.72279 5.60247 7.25744C5.65418 6.8438 5.70589 6.63697 5.75759 6.48186C5.861 6.27503 5.96441 6.11992 6.06783 5.9648C6.17124 5.80968 6.37806 5.70627 6.58488 5.65456C6.74 5.60286 6.94682 5.49945 7.36047 5.49945C7.77411 5.49945 7.92923 5.49945 8.75652 5.49945ZM11.4452 6.22333C11.1867 6.22333 10.9282 6.43015 10.9282 6.74038C10.9282 7.05062 11.135 7.25744 11.4452 7.25744C11.7555 7.25744 11.9623 7.05062 11.9623 6.74038C11.9623 6.43015 11.7037 6.22333 11.4452 6.22333ZM9.11846 6.79209C7.92923 6.79209 6.89512 7.7745 6.89512 9.01544C6.89512 10.2564 7.87753 11.2388 9.11846 11.2388C10.3594 11.2388 11.3418 10.2564 11.3418 9.01544C11.3418 7.7745 10.3594 6.79209 9.11846 6.79209ZM9.11846 7.56768C9.89405 7.56768 10.5662 8.18814 10.5662 9.01544C10.5662 9.84273 9.94576 10.4632 9.11846 10.4632C8.34288 10.4632 7.6707 9.84273 7.6707 9.01544C7.6707 8.18814 8.34288 7.56768 9.11846 7.56768Z" fill="#1C1C1C"/>
</svg>
